ply
format ascii 1.0
comment File exported by Rhinoceros Version 8
element vertex 24
property float x
property float y
property float z
property float nx
property float ny
property float nz
property uchar red
property uchar green
property uchar blue
element face 8
property list uchar uint vertex_indices
end_header
-1188.3314208984375 -65.9760513305664 0 1 -1.2348318E-15 0 250 250 250
-1188.3314208984375 -65.9760513305664 50 1 -1.2348318E-15 0 250 250 250
-1188.3314208984375 26.09060287475586 0 1 -1.2348318E-15 0 250 250 250
-1188.3314208984375 26.09060287475586 50 1 -1.2348318E-15 0 250 250 250
-1188.3314208984375 26.09060287475586 0 8.99344E-16 1 -0 250 250 250
-1188.3314208984375 26.09060287475586 50 8.99344E-16 1 -0 250 250 250
-1314.7423095703125 26.09060287475586 0 8.99344E-16 1 -0 250 250 250
-1314.7423095703125 26.09060287475586 50 8.99344E-16 1 -0 250 250 250
-1314.7423095703125 26.09060287475586 0 -1 9.261239E-16 0 250 250 250
-1314.7423095703125 26.09060287475586 50 -1 9.261239E-16 0 250 250 250
-1314.7423095703125 -65.9760513305664 0 -1 9.261239E-16 0 250 250 250
-1314.7423095703125 -65.9760513305664 50 -1 9.261239E-16 0 250 250 250
-1314.7423095703125 -65.9760513305664 0 -8.99344E-16 -1 0 250 250 250
-1314.7423095703125 -65.9760513305664 50 -8.99344E-16 -1 0 250 250 250
-1188.3314208984375 -65.9760513305664 0 -8.99344E-16 -1 0 250 250 250
-1188.3314208984375 -65.9760513305664 50 -8.99344E-16 -1 0 250 250 250
-1188.3314208984375 -65.9760513305664 0 -0 -0 -1 250 250 250
-1188.3314208984375 26.09060287475586 0 -0 -0 -1 250 250 250
-1314.7423095703125 26.09060287475586 0 -0 -0 -1 250 250 250
-1314.7423095703125 -65.9760513305664 0 -0 -0 -1 250 250 250
-1188.3314208984375 -65.9760513305664 50 0 0 1 250 250 250
-1188.3314208984375 26.09060287475586 50 0 0 1 250 250 250
-1314.7423095703125 26.09060287475586 50 0 0 1 250 250 250
-1314.7423095703125 -65.9760513305664 50 0 0 1 250 250 250
4 0 2 3 1
4 4 6 7 5
4 8 10 11 9
4 12 14 15 13
3 16 19 18
3 18 17 16
3 20 22 23
3 22 20 21
