ply
format ascii 1.0
comment File exported by Rhinoceros Version 8
element vertex 32
property float x
property float y
property float z
property float nx
property float ny
property float nz
property uchar red
property uchar green
property uchar blue
element face 8
property list uchar uint vertex_indices
end_header
-1294.7423095703125 6.090602397918701 0 1 -0 -0 250 250 250
-1294.7423095703125 6.090602397918701 50 1 -0 -0 250 250 250
-1294.7423095703125 -45.97605514526367 0 1 -0 -0 250 250 250
-1294.7423095703125 -45.97605514526367 50 1 -0 -0 250 250 250
-1294.7423095703125 -45.97605514526367 0 1.3322676E-15 1 -0 250 250 250
-1294.7423095703125 -45.97605514526367 50 1.3322676E-15 1 -0 250 250 250
-1208.3314208984375 -45.97605514526367 0 1.3322676E-15 1 -0 250 250 250
-1208.3314208984375 -45.97605514526367 50 1.3322676E-15 1 -0 250 250 250
-1208.3314208984375 -45.97605514526367 0 -1 -0 -0 250 250 250
-1208.3314208984375 -45.97605514526367 50 -1 -0 -0 250 250 250
-1208.3314208984375 6.090602397918701 0 -1 -0 -0 250 250 250
-1208.3314208984375 6.090602397918701 50 -1 -0 -0 250 250 250
-1208.3314208984375 6.090602397918701 0 -6.5225603E-16 -1 0 250 250 250
-1208.3314208984375 6.090602397918701 50 -6.5225603E-16 -1 0 250 250 250
-1294.7423095703125 6.090602397918701 0 -6.5225603E-16 -1 0 250 250 250
-1294.7423095703125 6.090602397918701 50 -6.5225603E-16 -1 0 250 250 250
-1332.7423095703125 26.09060287475586 -1.3883951931889808E-28 1 5.3290705E-15 -0 250 250 250
-1332.7423095703125 26.09060287475586 50 1 5.3290705E-15 -0 250 250 250
-1332.7423095703125 -65.9760513305664 -1.3883951931889808E-28 1 5.3290705E-15 -0 250 250 250
-1332.7423095703125 -65.9760513305664 50 1 5.3290705E-15 -0 250 250 250
-1314.7423095703125 -83.9760513305664 0 -0 1 4.440892E-16 250 250 250
-1314.7423095703125 -83.9760513305664 50 -0 1 4.440892E-16 250 250 250
-1188.3314208984375 -83.9760513305664 0 -0 1 4.440892E-16 250 250 250
-1188.3314208984375 -83.9760513305664 50 -0 1 4.440892E-16 250 250 250
-1314.7423095703125 44.09060287475586 0 0 -1 -6.661338E-16 250 250 250
-1314.7423095703125 44.09060287475586 50 0 -1 -6.661338E-16 250 250 250
-1188.3314208984375 44.09060287475586 0 0 -1 -6.661338E-16 250 250 250
-1188.3314208984375 44.09060287475586 50 0 -1 -6.661338E-16 250 250 250
-1170.3314208984375 26.09060287475586 -1.3883951931889808E-28 -1 -5.3290705E-15 0 250 250 250
-1170.3314208984375 26.09060287475586 50 -1 -5.3290705E-15 0 250 250 250
-1170.3314208984375 -65.9760513305664 -1.3883951931889808E-28 -1 -5.3290705E-15 0 250 250 250
-1170.3314208984375 -65.9760513305664 50 -1 -5.3290705E-15 0 250 250 250
4 3 2 0 1
4 7 6 4 5
4 11 10 8 9
4 15 14 12 13
4 19 18 16 17
4 23 22 20 21
4 27 25 24 26
4 31 29 28 30
